<?xml version="1.0" encoding="UTF-8"?>
<!DOCTYPE svg PUBLIC "-//W3C//DTD SVG 1.1//EN" "http://www.w3.org/Graphics/SVG/1.1/DTD/svg11.dtd">
<!-- Creator: CorelDRAW -->
<svg xmlns="http://www.w3.org/2000/svg" xml:space="preserve" width="220in" height="52.8654in" version="1.1" style="shape-rendering:geometricPrecision; text-rendering:geometricPrecision; image-rendering:optimizeQuality; fill-rule:evenodd; clip-rule:evenodd"
viewBox="0 0 143108.22 34388.51"
 xmlns:xlink="http://www.w3.org/1999/xlink"
 xmlns:xodm="http://www.corel.com/coreldraw/odm/2003">
 <defs>
  <style type="text/css">
   <![CDATA[
    .fil0 {fill:#16A1B6}
    .fil1 {fill:#373435;fill-rule:nonzero}
   ]]>
  </style>
 </defs>
 <g id="Layer_x0020_1">
  <metadata id="CorelCorpID_0Corel-Layer"/>
  <g id="_2508808277568">
   <g>
    <path class="fil0" d="M24944.35 26416.03l411.63 -2652.42c4.16,-33.08 21.73,-37.69 33.24,-56.13 -39.9,-1576.66 544.4,-1091.05 1187.6,-1298.68 13.43,-397.79 -186.55,-341.53 -572.69,-492.55 -253.62,-99.19 -527.71,-213.58 -717.11,-332.05 -1430.5,-894.7 -2174.54,-2216.91 -2294.61,-4045.65 -396.33,-175.66 -431.32,-226.95 -326.5,-1218.77 356.26,-3370.34 2636.64,-4914.18 6229.63,-4788.58 2114.63,73.92 3393.03,877.91 4361.73,1943.09 739.98,813.66 859.59,1355.31 1267.43,1893.6 593.2,782.9 1281.09,574.06 2163.54,995.31 86.48,301.76 164.52,695.46 62.96,968.24 -582.8,242.44 -1982.83,92.36 -2676.28,282.88 -485.09,1163.36 -393.54,1109.96 42.39,1606.12 1252.25,1425.3 1090.71,1296.41 302.44,1815.56 -35.63,455.77 94.81,737.19 88.78,1125.61 240.47,390.69 175.73,2181.12 10.12,2482.42 -623.12,159.26 -1552.36,-94.01 -2238.4,23.84 -113.69,279.63 -70.85,831.26 -61.75,1250.98l16.03 986.7c1.02,25 6.69,101.9 8.17,118.48 1.06,11.69 9.7,56.88 10.64,48.4 0.9,-7.91 7.99,29.79 12.85,47.92l350.36 -62.64c414.14,-167.31 754.62,-305.94 1128.5,-508.51 383.64,-207.86 701.6,-449.87 1028.55,-616.7 90.41,-99.65 -7.37,-7.41 119.93,-123.03 8.72,-7.93 102.28,-84.45 117.16,-95.89 166.57,-128 90.41,-72.76 242.06,-154.47 924.74,-872.07 970.39,-800.93 1804.07,-1944.31 4318.27,-5922.51 -237.55,-15141.1 -8298.09,-14550.66 -4204.69,308.01 -7328.49,3336.15 -8310.14,6723.36 -879.25,3033.87 -52.15,6429.61 1919.99,8642.65 454.91,510.48 1882.12,1863.72 2575.77,1985.9z"/>
    <path class="fil0" d="M29360.34 25478.64c363.81,0 658.73,305.46 658.73,682.28 0,376.81 -294.93,682.27 -658.73,682.27 -363.8,0 -658.73,-305.46 -658.73,-682.27 0,-376.81 294.93,-682.28 658.73,-682.28zm-399.59 -9591.77c-105.91,-14.16 -424.34,29.24 -566.08,-779.62 -71.72,-291.68 -120.18,-927.27 -70.33,-1265.79l-49.14 -94.11 -242.7 -2.35c43.66,295.76 -1611.87,1938.01 -355.86,3411.33 693.43,813.44 648.06,1430.68 648.06,2789.83 0,914.62 -64.12,6502.13 37.86,6922.34 247.94,1021.8 1732.26,1015.78 1959.49,-56.73 96.5,-455.49 29.56,-5984.22 30.19,-6935.87 0.42,-625.45 69.08,-1105.62 -260.55,-1477.69 -290.07,-327.43 -707.73,-308.81 -1042.87,-615.83 673.69,-17.89 1042.09,75.97 1627.95,-269.06 1333.66,-785.45 1048.29,-2325.62 428.89,-3431.97 -133.43,-238.3 -179.9,-398.26 -490.46,-348.19 -462.64,911.55 422.6,2483.27 -1654.46,2153.69z"/>
   </g>
   <path class="fil1" d="M5396.6 14968.65l196.95 -590.87c866.61,735.3 1982.69,1102.95 3348.25,1102.95 1785.74,0 3197.25,-649.95 4234.56,-1949.86 1037.3,-1299.91 1555.95,-3105.34 1555.95,-5416.29 0,-2258.43 -512.08,-4044.16 -1536.26,-5357.2 -1024.17,-1313.04 -2415.99,-1969.56 -4175.47,-1969.56 -1418.08,26.26 -2652.34,571.17 -3702.77,1634.73 -1050.43,1063.56 -1667.56,2461.95 -1851.39,4195.16l0 19853.16c0,656.52 328.26,1024.17 984.78,1102.95l3742.16 512.09 0 157.56 -8193.37 0 0 -157.56 39.39 -39.39c498.96,-367.65 748.44,-892.87 748.44,-1575.65l0 -23989.24c0,-709.04 -249.48,-1247.38 -748.44,-1615.04l-39.39 -39.39 0 -157.56 3466.42 0 0 3505.82c1102.96,-2599.82 3098.78,-3965.38 5987.46,-4096.69 2363.47,-78.78 4293.64,623.7 5790.51,2107.43 1496.86,1483.74 2245.3,3459.86 2245.3,5928.38 0,2389.73 -735.3,4319.9 -2205.91,5790.51 -1470.6,1470.6 -3413.9,2205.91 -5829.9,2205.91 -210.09,0 -354.52,-13.13 -433.3,-39.39 2415.99,4490.6 4044.16,7353.03 4884.51,8587.28 1523.13,2205.9 2704.87,3308.86 3545.21,3308.86 604,0 1011.04,-407.04 1221.13,-1221.13 210.08,-814.08 183.83,-1877.65 -78.78,-3190.69l393.91 -118.17 787.83 3978.51c-761.56,892.87 -1864.52,1339.3 -3308.86,1339.3 -2363.47,0 -4267.38,-1326.17 -5711.72,-3978.51l-5357.2 -9808.41z"/>
   <path class="fil1" d="M45142.31 27140.53l78.78 -118.17c997.91,840.34 2205.91,1260.52 3623.99,1260.52 2153.38,0 3781.55,-932.26 4884.51,-2796.77 1102.95,-1864.52 1654.43,-4280.51 1654.43,-7247.98 0,-2967.47 -544.91,-5383.46 -1634.73,-7247.98 -1089.82,-1864.52 -2724.56,-2796.77 -4904.2,-2796.77 -1575.65,0 -2809.91,538.35 -3702.77,1615.04 -892.87,1076.69 -1365.56,2626.08 -1418.08,4648.16l0 -39.39 0 18198.73c0,682.78 315.13,1063.56 945.39,1142.35l2599.82 472.69 0 157.56 -6854.07 0 0 -157.56 39.39 0c498.96,-446.44 748.43,-984.78 748.43,-1615.04l0 -22768.11c0,-630.26 -249.47,-1168.61 -748.43,-1615.04l-39.39 0 0 -157.56 3308.86 0 0 2954.34c945.39,-2127.12 2652.34,-3243.21 5120.85,-3348.25 2652.34,-78.78 4838.55,873.17 6558.63,2855.86 1720.08,1982.69 2580.12,4549.68 2580.12,7700.98 0,3125.03 -840.35,5659.2 -2521.04,7602.5 -1680.69,1943.3 -3886.6,2914.95 -6617.72,2914.95 -1339.3,0 -2534.17,-354.52 -3584.6,-1063.56 -210.09,-131.3 -249.48,-315.13 -118.17,-551.47z"/>
   <path class="fil1" d="M73425.19 25367.93l0 -1181.74c-577.74,1418.08 -1470.6,2540.73 -2678.6,3367.95 -1208,827.22 -2626.08,1240.82 -4254.25,1240.82 -1943.3,0 -3505.82,-518.65 -4687.55,-1555.95 -1181.74,-1037.3 -1772.6,-2409.43 -1772.6,-4116.38 0,-1523.13 446.44,-2704.86 1339.3,-3545.21 892.86,-840.35 2219.04,-1654.43 3978.51,-2442.26l-4766.33 -4451.2c709.04,-1523.13 1733.21,-2731.12 3072.51,-3623.99 1339.3,-892.87 2757.38,-1339.3 4254.25,-1339.3 2652.34,0 4661.29,755 6026.85,2264.99 1365.56,1510 2035.21,3722.47 2008.95,6637.42l0 8744.85c0,1811.99 367.65,2717.99 1102.95,2717.99 577.74,0 1004.48,-518.65 1280.21,-1555.95 275.74,-1037.3 295.43,-2133.69 59.09,-3289.16l551.48 -118.17c78.78,446.43 118.17,958.52 118.17,1536.26 0,577.74 -59.09,1201.43 -177.26,1871.08 -118.17,669.65 -407.04,1214.56 -866.61,1634.73 -459.57,420.17 -1057,617.13 -1792.3,590.87 -1864.52,-78.78 -2796.78,-1207.99 -2796.78,-3387.64zm-5435.98 -17095.78c-1391.82,0 -2514.47,328.26 -3367.95,984.78 -853.48,656.52 -1280.22,1549.38 -1280.22,2678.6 0,1628.17 814.08,3308.86 2442.26,5042.07 26.26,0 236.35,-91.91 630.26,-275.74 393.91,-183.83 623.7,-288.87 689.35,-315.13 65.65,-26.26 275.74,-118.17 630.26,-275.74 354.52,-157.57 584.3,-269.18 689.34,-334.83 105.04,-65.65 302,-170.69 590.87,-315.13 288.87,-144.44 498.96,-269.18 630.26,-374.22 131.3,-105.04 308.57,-229.78 531.78,-374.22 223.22,-144.43 420.17,-288.87 590.87,-433.3 170.7,-144.44 334.83,-295.43 492.39,-453l0 39.39c131.3,288.87 78.78,551.47 -157.56,787.82 -577.74,498.96 -1299.91,984.78 -2166.52,1457.48 -866.61,472.69 -1634.73,873.17 -2304.38,1201.43 -669.65,328.26 -1319.61,722.17 -1949.86,1181.74 -630.26,459.56 -1122.65,1043.87 -1477.17,1752.91 -354.52,709.04 -531.78,1549.39 -531.78,2521.04 0,1575.65 420.17,2855.86 1260.52,3840.64 840.35,984.78 1930.17,1477.17 3269.47,1477.17 1680.69,0 3098.77,-630.26 4254.25,-1890.78 1155.47,-1260.52 1811.99,-2770.51 1969.56,-4529.99l0 -4372.42c26.26,-3125.04 -393.91,-5409.73 -1260.52,-6854.07 -866.61,-1444.35 -2258.43,-2166.52 -4175.47,-2166.52z"/>
   <path class="fil1" d="M81913.99 3092.21c-354.52,-354.52 -531.78,-781.26 -531.78,-1280.21 0,-498.96 177.26,-925.7 531.78,-1280.22 354.52,-354.52 781.26,-531.78 1280.21,-531.78 498.96,0 919.13,177.26 1260.52,531.78 341.39,354.52 512.08,781.26 512.08,1280.22 0,498.95 -170.69,925.69 -512.08,1280.21 -341.39,354.52 -761.56,531.78 -1260.52,531.78 -498.95,0 -925.69,-177.26 -1280.21,-531.78zm2225.6 6755.59l0 16623.08c0,656.52 315.13,1050.43 945.39,1181.74l2205.91 433.3 0 157.56 -6460.16 0 0 -157.56 39.39 -39.39c498.95,-420.17 748.43,-945.39 748.43,-1575.65l0 -18435.08 5672.33 0 0 157.57 -2205.91 472.69c-630.26,131.3 -945.39,525.22 -945.39,1181.74z"/>
   <path class="fil1" d="M93987.4 27613.23l2599.82 472.69 0 157.56 -6854.07 0 0 -157.56 39.39 -39.39c498.96,-420.17 748.43,-945.39 748.43,-1575.65l0 -16662.48c0,-630.26 -249.47,-1168.6 -748.43,-1615.04l-39.39 0 0 -157.57 5278.42 0 0 157.57 -1063.56 315.13c-604,210.09 -906,643.39 -906,1299.91l0 8114.59c262.61,-1733.21 610.56,-3295.73 1043.87,-4687.55 433.3,-1391.82 1083.26,-2665.47 1949.86,-3820.94 866.61,-1155.47 1851.38,-1772.6 2954.34,-1851.39 1286.78,-105.04 2350.34,170.69 3190.69,827.22 840.35,656.52 1391.82,1641.3 1654.43,2954.34l-4648.16 4529.99 -275.74 -275.74c892.87,-919.13 1523.13,-1634.73 1890.78,-2146.82 367.65,-512.09 590.87,-1070.13 669.65,-1674.13 105.04,-1076.69 -91.91,-1930.17 -590.87,-2560.43 -498.96,-630.26 -1194.87,-919.13 -2087.73,-866.61 -866.61,52.52 -1680.69,623.69 -2442.25,1713.52 -761.57,1089.82 -1365.56,2409.43 -1812,3958.82 -446.43,1549.39 -800.95,3092.21 -1063.56,4628.47 -262.61,1536.25 -407.04,2895.25 -433.3,4076.99l0 3742.17c0,630.26 315.13,1011.04 945.39,1142.35z"/>
   <path class="fil1" d="M127469.91 27888.96l315.13 196.96 0 157.56 -7996.41 0c-1654.43,0 -3210.38,-256.04 -4667.86,-768.13 -1457.47,-512.08 -2698.3,-1365.56 -3722.47,-2560.43 -1024.17,-1194.86 -1536.26,-2632.64 -1536.26,-4313.34 0,-1575.65 485.83,-2908.38 1457.47,-3998.21 971.65,-1089.82 2232.17,-1634.73 3781.55,-1634.73 2048.34,0 3781.55,840.35 5199.64,2521.04l-5475.38 -15283.78 -9020.58 24501.32c-105.05,210.08 -105.05,393.91 0,551.48 105.04,157.56 262.61,249.47 472.69,275.74l5002.68 551.48 0 157.56 -7405.55 0 0 -157.56 236.35 -157.57c393.91,-341.39 695.91,-748.43 906,-1221.13l9493.28 -25289.15c-315.13,-446.43 -695.91,-682.78 -1142.34,-709.04l-3584.6 -433.3 0 -196.96 6854.07 0 9926.58 26628.45c183.83,498.96 485.83,892.87 906,1181.74zm-4490.6 -2836.17l-1378.69 -3899.73c-1523.13,-3729.03 -3689.64,-5593.55 -6499.55,-5593.55 -1391.82,0 -2507.9,479.26 -3348.25,1437.78 -840.35,958.52 -1260.52,2133.69 -1260.52,3525.51 0,2310.95 925.7,4057.29 2777.08,5239.03 1851.39,1181.74 4024.47,1798.87 6519.24,1851.39l1339.3 0c840.35,26.26 1431.21,-196.96 1772.6,-669.65 341.39,-472.69 367.65,-1102.95 78.78,-1890.78z"/>
   <path class="fil1" d="M131881.73 1890.77l0 24580.11c0,656.52 328.26,1050.43 984.78,1181.74l2166.52 433.3 0 157.56 -6460.16 0 0 -157.56 39.39 -39.39c498.96,-367.65 748.44,-892.87 748.44,-1575.65l0 -26392.1 5672.33 0 0 157.56 -2166.52 472.69c-656.52,131.3 -984.78,525.22 -984.78,1181.74z"/>
   <path class="fil1" d="M139956.92 1890.77l0 24580.11c0,656.52 328.26,1050.43 984.78,1181.74l2166.52 433.3 0 157.56 -6460.16 0 0 -157.56 39.39 -39.39c498.96,-367.65 748.44,-892.87 748.44,-1575.65l0 -26392.1 5672.33 0 0 157.56 -2166.52 472.69c-656.52,131.3 -984.78,525.22 -984.78,1181.74z"/>
  </g>
 </g>
</svg>
